<svg width="32" height="32" viewBox="0 0 32 32" fill="none" xmlns="http://www.w3.org/2000/svg">
<path fill-rule="evenodd" clip-rule="evenodd" d="M4.02167 0H9.37333C11.6058 0 13.395 1.82083 13.395 4.05492V9.4525C13.395 11.7008 11.6058 13.5058 9.37333 13.5058H4.02167C1.805 13.5058 0 11.7008 0 9.4525V4.05492C0 1.82083 1.805 0 4.02167 0ZM4.02167 18.1604H9.37333C11.6058 18.1604 13.395 19.967 13.395 22.2153V27.6129C13.395 29.8454 11.6058 31.6663 9.37333 31.6663H4.02167C1.805 31.6663 0 29.8454 0 27.6129V22.2153C0 19.967 1.805 18.1604 4.02167 18.1604ZM27.6451 0H22.2935C20.061 0 18.2718 1.82083 18.2718 4.05492V9.4525C18.2718 11.7008 20.061 13.5058 22.2935 13.5058H27.6451C29.8618 13.5058 31.6668 11.7008 31.6668 9.4525V4.05492C31.6668 1.82083 29.8618 0 27.6451 0ZM22.2935 18.1604H27.6451C29.8618 18.1604 31.6668 19.967 31.6668 22.2153V27.6129C31.6668 29.8454 29.8618 31.6663 27.6451 31.6663H22.2935C20.061 31.6663 18.2718 29.8454 18.2718 27.6129V22.2153C18.2718 19.967 20.061 18.1604 22.2935 18.1604Z" fill="#FFB531"/>
</svg>
