<svg width="32" height="32" viewBox="0 0 32 32" fill="none" xmlns="http://www.w3.org/2000/svg">
<path fill-rule="evenodd" clip-rule="evenodd" d="M8.43917 0H23.2259C28.6108 0 31.6508 3.05425 31.6667 8.43917V23.2275C31.6667 28.6108 28.6108 31.6667 23.2259 31.6667H8.43917C3.05425 31.6667 0 28.6108 0 23.2275V8.43917C0 3.05425 3.05425 0 8.43917 0ZM15.9109 25.1119C16.5933 25.1119 17.1617 24.6053 17.225 23.9244V7.79025C17.2884 7.29942 17.0524 6.807 16.6249 6.53942C16.18 6.27025 15.6417 6.27025 15.2158 6.53942C14.7867 6.807 14.5508 7.29942 14.5967 7.79025V23.9244C14.6774 24.6053 15.2459 25.1119 15.9109 25.1119ZM23.1958 25.1114C23.8608 25.1114 24.4292 24.6048 24.5099 23.9239V18.7306C24.5559 18.2224 24.3199 17.7489 23.8909 17.4798C23.4649 17.2106 22.9266 17.2106 22.4833 17.4798C22.0542 17.7489 21.8183 18.2224 21.8816 18.7306V23.9239C21.9449 24.6048 22.5134 25.1114 23.1958 25.1114ZM9.84672 23.924C9.78339 24.6048 9.21497 25.1115 8.53256 25.1115C7.85172 25.1115 7.28172 24.6048 7.21997 23.924V12.9832C7.17247 12.4908 7.40839 12.0015 7.83747 11.7323C8.26339 11.4632 8.80331 11.4632 9.23081 11.7323C9.65672 12.0015 9.89581 12.4908 9.84672 12.9832V23.924Z" fill="#FFB531"/>
</svg>
