<svg width="1440" height="423" viewBox="0 0 1440 423" fill="none" xmlns="http://www.w3.org/2000/svg">
<path d="M1364 425.5C1314 350.999 1189 106 887.5 182.499C848 192.499 660.819 234.238 561.5 209.5C425 175.5 241 -13.0008 -0.5 129.499" stroke="#E6F2F2" stroke-width="2"/>
<path d="M1142.5 424.5C1101.5 359.834 970.4 248.7 774 321.5C719 336.5 648.5 365 544 314.5C439.5 264 373.5 215 216.5 246C90.9 270.8 35.8333 375.333 24 424.5" stroke="#E6F2F2" stroke-width="2"/>
<path d="M145.5 425.5C194.833 350.333 334 229 496 345C698.5 490 867.5 265.5 1021.5 427.5" stroke="#E6F2F2" stroke-width="2"/>
<path d="M248.5 427.5C289.5 387.333 397.3 323.1 500.5 387.5" stroke="#E6F2F2" stroke-width="2"/>
<path d="M409.5 427C423.167 420 460.4 410.2 500 427" stroke="#E6F2F2" stroke-width="2"/>
<path d="M-0.5 256.001C65 193 237.173 108.116 376.5 180C549 268.998 616.869 296.134 747 269.001C876.5 242 1079.5 156.001 1249 425.001" stroke="#E6F2F2" stroke-width="2"/>
<path d="M1442 369.5C1365 238 1154.8 7.60019 866 142C811.5 167.5 640.5 218 365 66.4998C144.6 -54.7002 -17.8333 20.3331 -71.5 72.9998" stroke="#E6F2F2" stroke-width="2"/>
</svg>
