<svg width="101" height="28" viewBox="0 0 101 28" fill="none" xmlns="http://www.w3.org/2000/svg">
<path d="M8.00006 17.0001H16.0001C18.7615 17.0001 21.0001 19.2387 21.0001 22.0001C21.0001 24.7615 18.7615 27.0001 16.0001 27.0001H8.00006V17.0001Z" fill="#FFB737"/>
<path d="M8.50011 27.0001L8.95151 8.28422C9.00147 3.87318 5.46611 0.337824 1.05507 0.387783L0.844921 18.942C0.794961 23.353 4.08907 27.0501 8.50011 27.0001Z" fill="#124D5F"/>
<path d="M36.7036 24.176C35.4769 24.176 34.4156 23.936 33.5196 23.456C32.6342 22.976 31.9462 22.2987 31.4556 21.424C30.9756 20.5493 30.7356 19.5253 30.7356 18.352C30.7356 17.1787 30.9756 16.16 31.4556 15.296C31.9462 14.4213 32.6342 13.744 33.5196 13.264C34.4156 12.784 35.4769 12.544 36.7036 12.544C37.4822 12.544 38.1916 12.6507 38.8316 12.864C39.4716 13.0667 40.0102 13.36 40.4476 13.744L39.5676 16.064C39.0769 15.712 38.6236 15.4667 38.2076 15.328C37.8022 15.1787 37.3382 15.104 36.8156 15.104C35.8556 15.104 35.1142 15.3867 34.5916 15.952C34.0796 16.5067 33.8236 17.3067 33.8236 18.352C33.8236 19.408 34.0796 20.2187 34.5916 20.784C35.1142 21.3387 35.8556 21.616 36.8156 21.616C37.3382 21.616 37.8022 21.5467 38.2076 21.408C38.6236 21.2587 39.0769 21.008 39.5676 20.656L40.4476 22.976C40.0102 23.36 39.4716 23.6587 38.8316 23.872C38.1916 24.0747 37.4822 24.176 36.7036 24.176ZM41.8327 24V12.224H44.6807V24H41.8327ZM46.4421 24V15.872H49.2901V24H46.4421ZM46.3781 14.72V12.16H49.3701V14.72H46.3781ZM55.1634 24.176C54.2674 24.176 53.4834 24.0053 52.8114 23.664C52.1394 23.3227 51.6168 22.8373 51.2434 22.208C50.8701 21.568 50.6834 20.8053 50.6834 19.92C50.6834 19.0347 50.8701 18.2773 51.2434 17.648C51.6168 17.0187 52.1394 16.5387 52.8114 16.208C53.4834 15.8667 54.2674 15.696 55.1634 15.696C55.7181 15.696 56.2621 15.7707 56.7954 15.92C57.3288 16.0693 57.7608 16.2827 58.0914 16.56L57.2914 18.496C57.0354 18.2827 56.7421 18.1227 56.4114 18.016C56.0914 17.8987 55.7768 17.84 55.4674 17.84C54.8808 17.84 54.4221 18.016 54.0914 18.368C53.7714 18.72 53.6114 19.2373 53.6114 19.92C53.6114 20.6027 53.7714 21.1253 54.0914 21.488C54.4221 21.84 54.8808 22.016 55.4674 22.016C55.7661 22.016 56.0808 21.9627 56.4114 21.856C56.7421 21.7387 57.0354 21.5787 57.2914 21.376L58.0914 23.312C57.7501 23.5787 57.3128 23.792 56.7794 23.952C56.2568 24.1013 55.7181 24.176 55.1634 24.176ZM59.2702 24V12.224H62.1182V19.152H62.1502L64.8702 15.872H68.2302L64.5502 20.224V19.248L68.3742 24H64.9342L62.1502 20.592H62.1182V24H59.2702ZM74.1294 24.176C73.5108 24.176 72.9454 24.0267 72.4334 23.728C71.9321 23.4293 71.6014 23.0347 71.4414 22.544H71.6174V24H68.8014V12.224H71.6494V17.248H71.4574C71.6388 16.7787 71.9748 16.4053 72.4654 16.128C72.9668 15.84 73.5214 15.696 74.1294 15.696C74.8334 15.696 75.4521 15.8667 75.9854 16.208C76.5294 16.5493 76.9508 17.04 77.2494 17.68C77.5588 18.32 77.7134 19.0773 77.7134 19.952C77.7134 20.8373 77.5588 21.5947 77.2494 22.224C76.9508 22.8533 76.5294 23.3387 75.9854 23.68C75.4521 24.0107 74.8334 24.176 74.1294 24.176ZM73.2334 22.064C73.7028 22.064 74.0868 21.8987 74.3854 21.568C74.6948 21.2373 74.8494 20.6987 74.8494 19.952C74.8494 19.2053 74.6948 18.6613 74.3854 18.32C74.0868 17.9787 73.7028 17.808 73.2334 17.808C72.7534 17.808 72.3641 17.9787 72.0654 18.32C71.7668 18.6507 71.6174 19.1893 71.6174 19.936C71.6174 20.6827 71.7668 21.2267 72.0654 21.568C72.3641 21.8987 72.7534 22.064 73.2334 22.064ZM82.2983 24.176C81.5943 24.176 80.9757 24.0107 80.4423 23.68C79.909 23.3387 79.4877 22.848 79.1783 22.208C78.8797 21.568 78.7303 20.8107 78.7303 19.936C78.7303 19.0507 78.8797 18.2933 79.1783 17.664C79.4877 17.024 79.909 16.5387 80.4423 16.208C80.9757 15.8667 81.5943 15.696 82.2983 15.696C82.9277 15.696 83.493 15.8453 83.9943 16.144C84.5063 16.4427 84.8423 16.832 85.0023 17.312H84.8423L85.0183 15.872H87.7543C87.7223 16.2347 87.6903 16.6027 87.6583 16.976C87.637 17.3493 87.6263 17.7173 87.6263 18.08V24H84.8103L84.7783 22.624H84.9703C84.8103 23.0933 84.4743 23.472 83.9623 23.76C83.461 24.0373 82.9063 24.176 82.2983 24.176ZM83.2103 22.064C83.6903 22.064 84.0797 21.8987 84.3783 21.568C84.677 21.2267 84.8263 20.6827 84.8263 19.936C84.8263 19.1893 84.677 18.6507 84.3783 18.32C84.0797 17.9787 83.6903 17.808 83.2103 17.808C82.7303 17.808 82.341 17.9787 82.0423 18.32C81.7437 18.6507 81.5943 19.1893 81.5943 19.936C81.5943 20.6827 81.7383 21.2267 82.0263 21.568C82.325 21.8987 82.7197 22.064 83.2103 22.064ZM89.3491 27.632L88.6771 25.424C89.1891 25.328 89.6157 25.2213 89.9571 25.104C90.3091 24.9973 90.5971 24.848 90.8211 24.656C91.0451 24.464 91.2211 24.2133 91.3491 23.904L91.7491 22.976L91.6851 24.048L88.1331 15.872H91.1411L93.2211 21.264H92.6931L94.8371 15.872H97.6531L94.0051 24.176C93.7171 24.8267 93.4077 25.36 93.0771 25.776C92.7571 26.192 92.4051 26.5227 92.0211 26.768C91.6477 27.0133 91.2371 27.1947 90.7891 27.312C90.3517 27.44 89.8717 27.5467 89.3491 27.632ZM97.3126 24V21.088H100.273V24H97.3126Z" fill="#12163C"/>
</svg>
