<svg width="1440" height="1013" viewBox="0 0 1440 1013" fill="none" xmlns="http://www.w3.org/2000/svg">
<mask id="mask0_0_247" style="mask-type:alpha" maskUnits="userSpaceOnUse" x="0" y="0" width="1440" height="1013">
<rect width="1440" height="1013" fill="#FDF9F4"/>
</mask>
<g mask="url(#mask0_0_247)">
<path d="M1364 1015.5C1314 940.999 1189 696 887.5 772.499C848 782.499 660.819 824.238 561.5 799.5C425 765.5 241 576.999 -0.5 719.499" stroke="#E6F2F2" stroke-width="2"/>
<path d="M1142.5 1014.5C1101.5 949.834 970.4 838.7 774 911.5C719 926.5 648.5 955 544 904.5C439.5 854 373.5 805 216.5 836C90.9 860.8 35.8333 965.333 24 1014.5" stroke="#E6F2F2" stroke-width="2"/>
<path d="M145.5 1015.5C194.833 940.333 334 819 496 935C698.5 1080 867.5 855.5 1021.5 1017.5" stroke="#E6F2F2" stroke-width="2"/>
<path d="M248.5 1017.5C289.5 977.333 397.3 913.1 500.5 977.5" stroke="#E6F2F2" stroke-width="2"/>
<path d="M409.5 1017C423.167 1010 460.4 1000.2 500 1017" stroke="#E6F2F2" stroke-width="2"/>
<path d="M-0.5 846.001C65 783 237.173 698.116 376.5 770C549 858.998 616.869 886.134 747 859.001C876.5 832 1079.5 746.001 1249 1015" stroke="#E6F2F2" stroke-width="2"/>
<path d="M1442 959.5C1365 828 1154.8 597.6 866 732C811.5 757.5 640.5 808 365 656.5C144.6 535.3 -17.8333 610.333 -71.5 663" stroke="#E6F2F2" stroke-width="2"/>
</g>
</svg>
