<svg width="32" height="26" viewBox="0 0 32 26" fill="none" xmlns="http://www.w3.org/2000/svg">
<path fill-rule="evenodd" clip-rule="evenodd" d="M9.82127 12.9996C9.82127 16.3774 12.5863 19.1257 16.0001 19.1257C19.3985 19.1257 22.1635 16.3774 22.1635 12.9996C22.1635 9.60647 19.3985 6.85819 16.0001 6.85819C12.5863 6.85819 9.82127 9.60647 9.82127 12.9996ZM25.083 3.5726C27.7863 5.66068 30.0879 8.71604 31.7407 12.5391C31.8643 12.8308 31.8643 13.1686 31.7407 13.4449C28.435 21.091 22.5497 25.6663 16.0001 25.6663H15.9846C9.45049 25.6663 3.56512 21.091 0.259431 13.4449C0.135854 13.1686 0.135854 12.8308 0.259431 12.5391C3.56512 4.89301 9.45049 0.333008 15.9846 0.333008H16.0001C19.2749 0.333008 22.3798 1.46917 25.083 3.5726ZM16.002 16.819C18.1183 16.819 19.8483 15.0994 19.8483 12.996C19.8483 10.8772 18.1183 9.15762 16.002 9.15762C15.8166 9.15762 15.6313 9.17297 15.4614 9.20368C15.3996 10.8926 14.0093 12.2437 12.2947 12.2437H12.2175C12.1711 12.4893 12.1402 12.735 12.1402 12.996C12.1402 15.0994 13.8703 16.819 16.002 16.819Z" fill="#FFB531"/>
</svg>
